<svg id="svg" version="1.1" xmlns="http://www.w3.org/2000/svg" xmlns:xlink="http://www.w3.org/1999/xlink" class="custom-svg" width="20px" height="20px" viewBox="0, 0, 400,400"><g id="svgg"><path id="path0" d="M319.562 86.544 C 285.228 99.873,287.299 98.980,287.299 100.451 C 287.299 101.651,287.639 101.941,296.978 108.710 C 309.819 118.018,308.712 118.045,314.667 108.278 C 327.475 87.271,327.697 86.846,326.446 85.714 C 325.307 84.683,323.929 84.849,319.562 86.544 M176.204 86.916 C 141.825 89.159,104.214 110.026,86.669 136.594 C 67.387 165.790,85.973 205.210,120.836 209.060 C 135.728 210.704,149.482 205.600,172.160 190.012 C 205.697 166.959,226.376 152.946,251.241 136.421 C 262.000 129.270,271.164 123.086,271.606 122.677 C 273.304 121.106,272.749 119.981,268.376 116.132 C 244.435 95.058,211.487 84.614,176.204 86.916 M292.117 118.240 C 291.796 118.376,288.577 121.147,284.964 124.397 C 281.350 127.648,270.187 137.678,260.157 146.686 C 250.127 155.695,239.287 165.438,236.069 168.337 C 232.852 171.236,220.496 182.337,208.613 193.006 C 196.730 203.675,182.402 216.544,176.774 221.603 C 171.145 226.663,162.080 234.808,156.628 239.703 C 136.110 258.125,113.496 278.441,101.255 289.449 C 93.716 296.228,93.573 296.869,98.482 301.848 C 141.801 345.787,213.464 351.050,262.628 313.903 C 311.149 277.242,326.832 215.078,301.750 158.832 C 295.873 145.655,293.838 134.600,294.993 122.133 C 295.316 118.647,294.325 117.306,292.117 118.240 " stroke="none" fill="#fbfbfb" fill-rule="evenodd"></path><path id="path1" d="M0.000 200.000 L 0.000 400.000 200.000 400.000 L 400.000 400.000 400.000 200.000 L 400.000 0.000 200.000 0.000 L 0.000 0.000 0.000 200.000 M326.446 85.714 C 327.697 86.846,327.475 87.271,314.667 108.278 C 308.712 118.045,309.819 118.018,296.978 108.710 C 287.639 101.941,287.299 101.651,287.299 100.451 C 287.299 98.980,285.228 99.873,319.562 86.544 C 323.929 84.849,325.307 84.683,326.446 85.714 M196.673 87.014 C 224.666 89.234,249.085 99.151,268.376 116.132 C 272.749 119.981,273.304 121.106,271.606 122.677 C 271.164 123.086,262.000 129.270,251.241 136.421 C 226.376 152.946,205.697 166.959,172.160 190.012 C 149.482 205.600,135.728 210.704,120.836 209.060 C 90.878 205.751,71.710 175.560,81.485 147.079 C 89.738 123.030,126.695 95.806,160.217 89.081 C 170.621 86.993,185.661 86.140,196.673 87.014 M294.496 118.703 C 295.230 119.437,295.238 119.492,294.993 122.133 C 293.838 134.600,295.873 145.655,301.750 158.832 C 339.836 244.238,280.081 338.543,187.883 338.534 C 153.361 338.531,121.932 325.634,98.482 301.848 C 93.573 296.869,93.716 296.228,101.255 289.449 C 113.496 278.441,136.110 258.125,156.628 239.703 C 162.080 234.808,171.145 226.663,176.774 221.603 C 182.402 216.544,196.730 203.675,208.613 193.006 C 220.496 182.337,232.852 171.236,236.069 168.337 C 239.287 165.438,250.127 155.695,260.157 146.686 C 270.187 137.678,281.350 127.648,284.964 124.397 C 292.783 117.363,293.017 117.224,294.496 118.703 " stroke="none" fill="#8a89d3" fill-rule="evenodd"></path></g></svg>