<svg id="svg" version="1.1" xmlns="http://www.w3.org/2000/svg" xmlns:xlink="http://www.w3.org/1999/xlink" class="custom-svg" width="40px" height="25px" viewBox="0, 0, 400,262.06896551724134"><g id="svgg"><path id="path0" d="M105.655 41.183 C 100.629 41.628,99.751 41.778,97.293 42.618 C 95.783 43.134,93.357 43.787,91.903 44.069 C 90.235 44.392,88.768 44.859,87.930 45.332 C 87.199 45.744,85.723 46.339,84.650 46.653 C 83.578 46.967,81.933 47.670,80.996 48.216 C 80.059 48.761,78.681 49.407,77.934 49.652 C 77.187 49.896,76.066 50.484,75.444 50.958 C 74.821 51.433,73.722 52.081,73.001 52.398 C 72.280 52.716,71.337 53.318,70.904 53.735 C 70.472 54.153,69.528 54.753,68.807 55.068 C 68.087 55.383,66.941 56.155,66.263 56.785 C 65.584 57.414,64.910 57.929,64.764 57.929 C 63.593 57.929,50.440 70.868,49.252 73.189 C 48.978 73.725,48.518 74.289,48.231 74.443 C 47.943 74.597,47.467 75.195,47.172 75.773 C 46.877 76.351,46.215 77.261,45.701 77.796 C 45.187 78.331,44.443 79.476,44.047 80.341 C 43.652 81.206,43.031 82.267,42.667 82.700 C 42.302 83.132,41.649 84.253,41.216 85.190 C 40.783 86.127,40.117 87.304,39.735 87.806 C 39.354 88.308,38.805 89.517,38.514 90.494 C 38.223 91.470,37.635 92.833,37.207 93.522 C 36.778 94.210,36.137 95.862,35.781 97.193 C 35.425 98.523,34.763 100.323,34.310 101.194 C 33.670 102.424,33.383 103.490,33.025 105.976 C 32.771 107.735,32.200 110.619,31.755 112.384 C 29.896 119.770,29.948 134.602,31.860 141.962 C 32.205 143.288,32.724 145.921,33.014 147.813 C 33.408 150.383,33.744 151.661,34.341 152.866 C 34.781 153.752,35.441 155.549,35.807 156.859 C 36.174 158.168,36.808 159.771,37.217 160.419 C 37.626 161.068,38.206 162.433,38.506 163.453 C 38.823 164.533,39.427 165.791,39.952 166.467 C 40.448 167.106,41.099 168.287,41.399 169.092 C 41.699 169.897,42.250 170.841,42.623 171.189 C 42.995 171.537,43.643 172.575,44.062 173.496 C 44.480 174.417,45.295 175.683,45.872 176.308 C 46.448 176.934,46.920 177.566,46.920 177.713 C 46.920 177.860,47.362 178.470,47.903 179.068 C 48.444 179.666,49.122 180.539,49.410 181.009 C 51.011 183.614,62.273 194.546,64.945 196.089 C 65.628 196.483,66.341 197.062,66.529 197.376 C 66.718 197.689,67.541 198.241,68.358 198.602 C 69.174 198.964,70.277 199.651,70.807 200.130 C 71.338 200.610,72.295 201.233,72.934 201.516 C 73.573 201.799,74.704 202.448,75.446 202.959 C 76.188 203.469,77.563 204.142,78.500 204.454 C 79.437 204.766,80.272 205.132,80.356 205.267 C 80.615 205.687,82.611 206.602,84.355 207.101 C 85.272 207.363,86.674 207.945,87.470 208.394 C 88.415 208.928,89.930 209.425,91.837 209.829 C 93.443 210.169,95.813 210.810,97.104 211.253 C 99.595 212.110,103.138 212.580,111.009 213.100 C 116.443 213.459,291.786 213.462,296.358 213.103 C 304.588 212.457,307.464 212.060,309.783 211.251 C 311.034 210.815,313.403 210.165,315.047 209.806 C 317.087 209.362,318.552 208.867,319.661 208.246 C 320.555 207.746,321.970 207.200,322.805 207.032 C 323.716 206.849,324.860 206.364,325.662 205.821 C 326.397 205.322,327.802 204.639,328.783 204.303 C 329.765 203.966,330.942 203.375,331.400 202.990 C 331.858 202.605,333.060 201.909,334.072 201.443 C 335.083 200.978,336.203 200.279,336.559 199.892 C 336.916 199.504,337.688 198.974,338.276 198.714 C 338.864 198.454,339.752 197.894,340.249 197.469 C 340.746 197.045,341.802 196.243,342.595 195.687 C 343.388 195.131,344.076 194.575,344.125 194.452 C 344.174 194.328,344.752 193.857,345.410 193.404 C 346.068 192.951,347.679 191.503,348.991 190.185 C 350.303 188.867,351.617 187.617,351.911 187.407 C 352.205 187.197,352.694 186.670,352.998 186.236 C 353.302 185.802,354.571 184.387,355.820 183.091 C 357.068 181.794,358.374 180.185,358.721 179.515 C 359.069 178.845,359.829 177.746,360.411 177.074 C 360.992 176.403,361.468 175.752,361.468 175.628 C 361.468 175.504,361.972 174.812,362.589 174.090 C 363.206 173.368,363.924 172.181,364.186 171.453 C 364.448 170.725,365.023 169.632,365.464 169.023 C 365.905 168.414,366.554 167.202,366.906 166.330 C 367.258 165.458,367.812 164.391,368.138 163.958 C 369.029 162.774,369.489 161.751,369.847 160.157 C 370.026 159.364,370.575 157.921,371.067 156.950 C 371.583 155.933,372.176 154.153,372.465 152.756 C 372.741 151.420,373.387 149.241,373.901 147.913 C 374.573 146.177,374.911 144.778,375.101 142.933 C 375.247 141.522,375.554 138.598,375.783 136.435 C 376.495 129.711,376.536 124.770,375.927 119.135 C 375.630 116.396,375.311 113.270,375.217 112.189 C 374.959 109.226,374.649 107.798,373.793 105.636 C 373.366 104.554,372.778 102.561,372.487 101.205 C 372.196 99.849,371.550 97.903,371.052 96.880 C 370.553 95.857,369.955 94.253,369.724 93.316 C 369.487 92.359,368.899 91.018,368.383 90.258 C 367.877 89.513,367.225 88.274,366.934 87.505 C 366.643 86.737,366.110 85.720,365.750 85.246 C 365.390 84.771,364.749 83.620,364.326 82.686 C 363.902 81.752,363.167 80.547,362.691 80.009 C 362.216 79.471,361.517 78.490,361.138 77.830 C 360.760 77.169,360.267 76.477,360.043 76.292 C 359.819 76.106,359.264 75.290,358.809 74.478 C 358.353 73.666,357.497 72.523,356.907 71.938 C 356.316 71.354,355.183 70.136,354.391 69.232 C 353.598 68.328,352.010 66.683,350.862 65.577 C 349.715 64.470,348.165 62.975,347.418 62.254 C 345.425 60.331,343.457 58.698,342.094 57.836 C 341.432 57.418,340.491 56.726,340.001 56.297 C 339.511 55.869,338.626 55.308,338.035 55.052 C 337.443 54.795,336.664 54.261,336.304 53.864 C 335.944 53.468,334.897 52.804,333.978 52.388 C 333.059 51.972,331.880 51.296,331.357 50.886 C 330.834 50.476,329.629 49.885,328.678 49.571 C 327.728 49.258,326.466 48.645,325.873 48.210 C 325.281 47.774,323.943 47.182,322.900 46.893 C 321.857 46.603,320.288 45.970,319.414 45.486 C 318.386 44.916,317.037 44.458,315.596 44.188 C 313.000 43.703,311.455 43.282,308.891 42.359 C 307.363 41.808,305.932 41.597,300.797 41.160 C 291.389 40.359,114.729 40.381,105.655 41.183 M127.261 49.240 C 128.414 49.392,130.535 49.653,131.974 49.818 C 133.671 50.013,135.465 50.436,137.083 51.021 C 138.454 51.517,140.610 52.149,141.875 52.425 C 143.246 52.724,144.835 53.294,145.810 53.835 C 146.709 54.334,148.152 54.938,149.017 55.178 C 149.882 55.418,151.180 56.009,151.900 56.492 C 152.621 56.974,153.845 57.617,154.619 57.920 C 155.394 58.223,156.515 58.855,157.110 59.324 C 157.705 59.794,158.604 60.364,159.109 60.591 C 159.613 60.819,160.550 61.443,161.190 61.978 C 161.830 62.513,162.919 63.237,163.610 63.588 C 164.301 63.938,165.057 64.515,165.290 64.871 C 165.523 65.227,166.292 65.873,166.998 66.308 C 167.705 66.743,168.283 67.212,168.283 67.351 C 168.283 67.490,168.822 68.015,169.480 68.517 C 170.138 69.020,171.003 69.881,171.401 70.430 C 171.800 70.979,172.412 71.593,172.760 71.793 C 173.109 71.994,174.102 72.967,174.967 73.957 C 175.832 74.947,177.080 76.375,177.739 77.131 C 178.399 77.887,179.191 78.927,179.500 79.441 C 179.809 79.955,180.314 80.603,180.623 80.882 C 180.932 81.161,181.573 82.156,182.047 83.093 C 182.521 84.030,183.201 85.069,183.557 85.401 C 183.914 85.733,184.421 86.500,184.684 87.105 C 184.947 87.710,185.601 88.853,186.138 89.646 C 186.675 90.439,187.357 91.920,187.655 92.937 C 187.953 93.954,188.563 95.340,189.012 96.017 C 189.460 96.694,190.096 98.225,190.424 99.419 C 190.753 100.614,191.315 102.176,191.674 102.892 C 192.463 104.466,192.793 105.873,193.303 109.830 C 193.517 111.488,194.000 114.024,194.377 115.465 C 195.858 121.128,195.855 131.272,194.371 136.933 C 193.997 138.360,193.454 141.309,193.166 143.486 C 192.746 146.650,192.479 147.786,191.837 149.148 C 191.395 150.085,190.747 151.913,190.397 153.211 C 190.009 154.649,189.442 156.017,188.945 156.714 C 188.496 157.343,187.860 158.731,187.531 159.797 C 187.202 160.864,186.588 162.178,186.168 162.717 C 185.747 163.255,185.083 164.404,184.692 165.269 C 184.301 166.134,183.705 167.136,183.369 167.497 C 183.032 167.857,182.461 168.742,182.101 169.463 C 181.741 170.183,181.182 171.009,180.859 171.298 C 180.537 171.586,179.974 172.292,179.609 172.867 C 177.148 176.742,168.900 185.059,164.734 187.868 C 163.863 188.455,162.986 189.134,162.785 189.376 C 162.585 189.618,161.973 190.044,161.427 190.322 C 160.881 190.601,160.031 191.183,159.538 191.615 C 159.046 192.048,157.964 192.702,157.134 193.069 C 156.305 193.436,155.141 194.132,154.549 194.615 C 153.957 195.099,152.797 195.690,151.970 195.930 C 151.143 196.169,149.876 196.772,149.153 197.269 C 148.342 197.827,147.164 198.325,146.069 198.574 C 145.096 198.795,143.444 199.393,142.399 199.903 C 141.017 200.578,139.554 201.006,137.033 201.472 C 135.127 201.824,132.502 202.397,131.200 202.746 C 127.003 203.871,125.170 204.000,115.403 203.864 L 106.291 203.737 103.277 202.919 C 101.619 202.469,98.858 201.858,97.142 201.562 C 94.965 201.185,93.435 200.747,92.078 200.112 C 91.009 199.612,89.228 198.960,88.121 198.663 C 87.014 198.367,85.459 197.736,84.666 197.262 C 83.873 196.788,82.516 196.139,81.651 195.821 C 80.786 195.502,79.694 194.949,79.223 194.591 C 78.753 194.233,77.566 193.543,76.586 193.059 C 75.606 192.574,74.642 191.983,74.444 191.745 C 74.247 191.507,73.623 191.076,73.058 190.788 C 72.494 190.500,71.542 189.816,70.944 189.268 C 70.345 188.721,69.325 188.007,68.676 187.683 C 68.028 187.359,66.959 186.548,66.302 185.880 C 65.644 185.212,64.111 183.712,62.894 182.547 C 59.070 178.885,55.976 175.537,55.230 174.256 C 54.835 173.577,54.042 172.479,53.468 171.816 C 52.894 171.153,52.425 170.528,52.425 170.428 C 52.425 170.327,51.894 169.598,51.245 168.807 C 50.596 168.016,49.887 166.833,49.669 166.177 C 49.451 165.521,48.820 164.381,48.266 163.644 C 47.712 162.907,47.053 161.673,46.801 160.903 C 46.550 160.132,45.934 158.837,45.433 158.024 C 44.923 157.196,44.344 155.755,44.116 154.747 C 43.893 153.758,43.307 152.164,42.814 151.206 C 42.307 150.221,41.745 148.568,41.522 147.405 C 40.943 144.384,40.508 142.515,39.701 139.581 C 38.205 134.145,38.456 117.435,40.127 111.198 C 40.563 109.572,41.141 107.078,41.411 105.657 C 41.729 103.991,42.231 102.424,42.823 101.247 C 43.329 100.243,43.974 98.519,44.256 97.416 C 44.539 96.312,45.135 94.841,45.582 94.145 C 46.028 93.450,46.629 92.195,46.917 91.358 C 47.206 90.520,47.836 89.350,48.318 88.758 C 48.800 88.165,49.414 87.101,49.681 86.393 C 49.949 85.686,50.603 84.557,51.135 83.885 C 51.666 83.213,52.281 82.317,52.501 81.895 C 52.722 81.473,53.277 80.773,53.736 80.341 C 54.194 79.908,54.808 79.083,55.099 78.506 C 55.683 77.349,56.085 76.901,60.981 71.953 C 65.533 67.352,68.820 64.441,70.380 63.628 C 70.813 63.403,71.520 62.840,71.953 62.377 C 72.385 61.914,73.506 61.188,74.443 60.765 C 75.380 60.341,76.519 59.635,76.973 59.197 C 77.428 58.759,78.483 58.174,79.318 57.899 C 80.154 57.623,81.443 56.981,82.183 56.470 C 82.924 55.960,84.228 55.365,85.081 55.148 C 85.934 54.930,87.289 54.352,88.093 53.863 C 89.058 53.276,90.370 52.795,91.955 52.449 C 93.275 52.161,95.468 51.509,96.827 51.000 C 99.217 50.105,103.736 49.412,110.354 48.926 C 112.990 48.732,125.131 48.957,127.261 49.240 " stroke="none" fill="#d3d3d3" fill-rule="evenodd"></path><path id="path1" d="M0.000 131.062 L 0.000 262.123 200.000 262.123 L 400.000 262.123 400.000 131.062 L 400.000 0.000 200.000 0.000 L 0.000 0.000 0.000 131.062 M300.797 41.160 C 305.932 41.597,307.363 41.808,308.891 42.359 C 311.455 43.282,313.000 43.703,315.596 44.188 C 317.037 44.458,318.386 44.916,319.414 45.486 C 320.288 45.970,321.857 46.603,322.900 46.893 C 323.943 47.182,325.281 47.774,325.873 48.210 C 326.466 48.645,327.728 49.258,328.678 49.571 C 329.629 49.885,330.834 50.476,331.357 50.886 C 331.880 51.296,333.059 51.972,333.978 52.388 C 334.897 52.804,335.944 53.468,336.304 53.864 C 336.664 54.261,337.443 54.795,338.035 55.052 C 338.626 55.308,339.511 55.869,340.001 56.297 C 340.491 56.726,341.432 57.418,342.094 57.836 C 343.457 58.698,345.425 60.331,347.418 62.254 C 348.165 62.975,349.715 64.470,350.862 65.577 C 352.010 66.683,353.598 68.328,354.391 69.232 C 355.183 70.136,356.316 71.354,356.907 71.938 C 357.497 72.523,358.353 73.666,358.809 74.478 C 359.264 75.290,359.819 76.106,360.043 76.292 C 360.267 76.477,360.760 77.169,361.138 77.830 C 361.517 78.490,362.216 79.471,362.691 80.009 C 363.167 80.547,363.902 81.752,364.326 82.686 C 364.749 83.620,365.390 84.771,365.750 85.246 C 366.110 85.720,366.643 86.737,366.934 87.505 C 367.225 88.274,367.877 89.513,368.383 90.258 C 368.899 91.018,369.487 92.359,369.724 93.316 C 369.955 94.253,370.553 95.857,371.052 96.880 C 371.550 97.903,372.196 99.849,372.487 101.205 C 372.778 102.561,373.366 104.554,373.793 105.636 C 374.649 107.798,374.959 109.226,375.217 112.189 C 375.311 113.270,375.630 116.396,375.927 119.135 C 376.536 124.770,376.495 129.711,375.783 136.435 C 375.554 138.598,375.247 141.522,375.101 142.933 C 374.911 144.778,374.573 146.177,373.901 147.913 C 373.387 149.241,372.741 151.420,372.465 152.756 C 372.176 154.153,371.583 155.933,371.067 156.950 C 370.575 157.921,370.026 159.364,369.847 160.157 C 369.489 161.751,369.029 162.774,368.138 163.958 C 367.812 164.391,367.258 165.458,366.906 166.330 C 366.554 167.202,365.905 168.414,365.464 169.023 C 365.023 169.632,364.448 170.725,364.186 171.453 C 363.924 172.181,363.206 173.368,362.589 174.090 C 361.972 174.812,361.468 175.504,361.468 175.628 C 361.468 175.752,360.992 176.403,360.411 177.074 C 359.829 177.746,359.069 178.845,358.721 179.515 C 358.374 180.185,357.068 181.794,355.820 183.091 C 354.571 184.387,353.302 185.802,352.998 186.236 C 352.694 186.670,352.205 187.197,351.911 187.407 C 351.617 187.617,350.303 188.867,348.991 190.185 C 347.679 191.503,346.068 192.951,345.410 193.404 C 344.752 193.857,344.174 194.328,344.125 194.452 C 344.076 194.575,343.388 195.131,342.595 195.687 C 341.802 196.243,340.746 197.045,340.249 197.469 C 339.752 197.894,338.864 198.454,338.276 198.714 C 337.688 198.974,336.916 199.504,336.559 199.892 C 336.203 200.279,335.083 200.978,334.072 201.443 C 333.060 201.909,331.858 202.605,331.400 202.990 C 330.942 203.375,329.765 203.966,328.783 204.303 C 327.802 204.639,326.397 205.322,325.662 205.821 C 324.860 206.364,323.716 206.849,322.805 207.032 C 321.970 207.200,320.555 207.746,319.661 208.246 C 318.552 208.867,317.087 209.362,315.047 209.806 C 313.403 210.165,311.034 210.815,309.783 211.251 C 307.464 212.060,304.588 212.457,296.358 213.103 C 291.786 213.462,116.443 213.459,111.009 213.100 C 103.138 212.580,99.595 212.110,97.104 211.253 C 95.813 210.810,93.443 210.169,91.837 209.829 C 89.930 209.425,88.415 208.928,87.470 208.394 C 86.674 207.945,85.272 207.363,84.355 207.101 C 82.611 206.602,80.615 205.687,80.356 205.267 C 80.272 205.132,79.437 204.766,78.500 204.454 C 77.563 204.142,76.188 203.469,75.446 202.959 C 74.704 202.448,73.573 201.799,72.934 201.516 C 72.295 201.233,71.338 200.610,70.807 200.130 C 70.277 199.651,69.174 198.964,68.358 198.602 C 67.541 198.241,66.718 197.689,66.529 197.376 C 66.341 197.062,65.628 196.483,64.945 196.089 C 62.273 194.546,51.011 183.614,49.410 181.009 C 49.122 180.539,48.444 179.666,47.903 179.068 C 47.362 178.470,46.920 177.860,46.920 177.713 C 46.920 177.566,46.448 176.934,45.872 176.308 C 45.295 175.683,44.480 174.417,44.062 173.496 C 43.643 172.575,42.995 171.537,42.623 171.189 C 42.250 170.841,41.699 169.897,41.399 169.092 C 41.099 168.287,40.448 167.106,39.952 166.467 C 39.427 165.791,38.823 164.533,38.506 163.453 C 38.206 162.433,37.626 161.068,37.217 160.419 C 36.808 159.771,36.174 158.168,35.807 156.859 C 35.441 155.549,34.781 153.752,34.341 152.866 C 33.744 151.661,33.408 150.383,33.014 147.813 C 32.724 145.921,32.205 143.288,31.860 141.962 C 29.948 134.602,29.896 119.770,31.755 112.384 C 32.200 110.619,32.771 107.735,33.025 105.976 C 33.383 103.490,33.670 102.424,34.310 101.194 C 34.763 100.323,35.425 98.523,35.781 97.193 C 36.137 95.862,36.778 94.210,37.207 93.522 C 37.635 92.833,38.223 91.470,38.514 90.494 C 38.805 89.517,39.354 88.308,39.735 87.806 C 40.117 87.304,40.783 86.127,41.216 85.190 C 41.649 84.253,42.302 83.132,42.667 82.700 C 43.031 82.267,43.652 81.206,44.047 80.341 C 44.443 79.476,45.187 78.331,45.701 77.796 C 46.215 77.261,46.877 76.351,47.172 75.773 C 47.467 75.195,47.943 74.597,48.231 74.443 C 48.518 74.289,48.978 73.725,49.252 73.189 C 50.440 70.868,63.593 57.929,64.764 57.929 C 64.910 57.929,65.584 57.414,66.263 56.785 C 66.941 56.155,68.087 55.383,68.807 55.068 C 69.528 54.753,70.472 54.153,70.904 53.735 C 71.337 53.318,72.280 52.716,73.001 52.398 C 73.722 52.081,74.821 51.433,75.444 50.958 C 76.066 50.484,77.187 49.896,77.934 49.652 C 78.681 49.407,80.059 48.761,80.996 48.216 C 81.933 47.670,83.578 46.967,84.650 46.653 C 85.723 46.339,87.199 45.744,87.930 45.332 C 88.768 44.859,90.235 44.392,91.903 44.069 C 93.357 43.787,95.783 43.134,97.293 42.618 C 103.170 40.610,98.853 40.690,202.915 40.658 C 292.825 40.630,294.677 40.639,300.797 41.160 M110.354 48.926 C 103.736 49.412,99.217 50.105,96.827 51.000 C 95.468 51.509,93.275 52.161,91.955 52.449 C 90.370 52.795,89.058 53.276,88.093 53.863 C 87.289 54.352,85.934 54.930,85.081 55.148 C 84.228 55.365,82.924 55.960,82.183 56.470 C 81.443 56.981,80.154 57.623,79.318 57.899 C 78.483 58.174,77.428 58.759,76.973 59.197 C 76.519 59.635,75.380 60.341,74.443 60.765 C 73.506 61.188,72.385 61.914,71.953 62.377 C 71.520 62.840,70.813 63.403,70.380 63.628 C 68.820 64.441,65.533 67.352,60.981 71.953 C 56.085 76.901,55.683 77.349,55.099 78.506 C 54.808 79.083,54.194 79.908,53.736 80.341 C 53.277 80.773,52.722 81.473,52.501 81.895 C 52.281 82.317,51.666 83.213,51.135 83.885 C 50.603 84.557,49.949 85.686,49.681 86.393 C 49.414 87.101,48.800 88.165,48.318 88.758 C 47.836 89.350,47.206 90.520,46.917 91.358 C 46.629 92.195,46.028 93.450,45.582 94.145 C 45.135 94.841,44.539 96.312,44.256 97.416 C 43.974 98.519,43.329 100.243,42.823 101.247 C 42.231 102.424,41.729 103.991,41.411 105.657 C 41.141 107.078,40.563 109.572,40.127 111.198 C 38.456 117.435,38.205 134.145,39.701 139.581 C 40.508 142.515,40.943 144.384,41.522 147.405 C 41.745 148.568,42.307 150.221,42.814 151.206 C 43.307 152.164,43.893 153.758,44.116 154.747 C 44.344 155.755,44.923 157.196,45.433 158.024 C 45.934 158.837,46.550 160.132,46.801 160.903 C 47.053 161.673,47.712 162.907,48.266 163.644 C 48.820 164.381,49.451 165.521,49.669 166.177 C 49.887 166.833,50.596 168.016,51.245 168.807 C 51.894 169.598,52.425 170.327,52.425 170.428 C 52.425 170.528,52.894 171.153,53.468 171.816 C 54.042 172.479,54.835 173.577,55.230 174.256 C 55.976 175.537,59.070 178.885,62.894 182.547 C 64.111 183.712,65.644 185.212,66.302 185.880 C 66.959 186.548,68.028 187.359,68.676 187.683 C 69.325 188.007,70.345 188.721,70.944 189.268 C 71.542 189.816,72.494 190.500,73.058 190.788 C 73.623 191.076,74.247 191.507,74.444 191.745 C 74.642 191.983,75.606 192.574,76.586 193.059 C 77.566 193.543,78.753 194.233,79.223 194.591 C 79.694 194.949,80.786 195.502,81.651 195.821 C 82.516 196.139,83.873 196.788,84.666 197.262 C 85.459 197.736,87.014 198.367,88.121 198.663 C 89.228 198.960,91.009 199.612,92.078 200.112 C 93.435 200.747,94.965 201.185,97.142 201.562 C 98.858 201.858,101.619 202.469,103.277 202.919 L 106.291 203.737 115.403 203.864 C 125.170 204.000,127.003 203.871,131.200 202.746 C 132.502 202.397,135.127 201.824,137.033 201.472 C 139.554 201.006,141.017 200.578,142.399 199.903 C 143.444 199.393,145.096 198.795,146.069 198.574 C 147.164 198.325,148.342 197.827,149.153 197.269 C 149.876 196.772,151.143 196.169,151.970 195.930 C 152.797 195.690,153.957 195.099,154.549 194.615 C 155.141 194.132,156.305 193.436,157.134 193.069 C 157.964 192.702,159.046 192.048,159.538 191.615 C 160.031 191.183,160.881 190.601,161.427 190.322 C 161.973 190.044,162.585 189.618,162.785 189.376 C 162.986 189.134,163.863 188.455,164.734 187.868 C 168.900 185.059,177.148 176.742,179.609 172.867 C 179.974 172.292,180.537 171.586,180.859 171.298 C 181.182 171.009,181.741 170.183,182.101 169.463 C 182.461 168.742,183.032 167.857,183.369 167.497 C 183.705 167.136,184.301 166.134,184.692 165.269 C 185.083 164.404,185.747 163.255,186.168 162.717 C 186.588 162.178,187.202 160.864,187.531 159.797 C 187.860 158.731,188.496 157.343,188.945 156.714 C 189.442 156.017,190.009 154.649,190.397 153.211 C 190.747 151.913,191.395 150.085,191.837 149.148 C 192.479 147.786,192.746 146.650,193.166 143.486 C 193.454 141.309,193.997 138.360,194.371 136.933 C 195.855 131.272,195.858 121.128,194.377 115.465 C 194.000 114.024,193.517 111.488,193.303 109.830 C 192.793 105.873,192.463 104.466,191.674 102.892 C 191.315 102.176,190.753 100.614,190.424 99.419 C 190.096 98.225,189.460 96.694,189.012 96.017 C 188.563 95.340,187.953 93.954,187.655 92.937 C 187.357 91.920,186.675 90.439,186.138 89.646 C 185.601 88.853,184.947 87.710,184.684 87.105 C 184.421 86.500,183.914 85.733,183.557 85.401 C 183.201 85.069,182.521 84.030,182.047 83.093 C 181.573 82.156,180.932 81.161,180.623 80.882 C 180.314 80.603,179.809 79.955,179.500 79.441 C 179.191 78.927,178.399 77.887,177.739 77.131 C 177.080 76.375,175.832 74.947,174.967 73.957 C 174.102 72.967,173.109 71.994,172.760 71.793 C 172.412 71.593,171.800 70.979,171.401 70.430 C 171.003 69.881,170.138 69.020,169.480 68.517 C 168.822 68.015,168.283 67.490,168.283 67.351 C 168.283 67.212,167.705 66.743,166.998 66.308 C 166.292 65.873,165.523 65.227,165.290 64.871 C 165.057 64.515,164.301 63.938,163.610 63.588 C 162.919 63.237,161.830 62.513,161.190 61.978 C 160.550 61.443,159.613 60.819,159.109 60.591 C 158.604 60.364,157.705 59.794,157.110 59.324 C 156.515 58.855,155.394 58.223,154.619 57.920 C 153.845 57.617,152.621 56.974,151.900 56.492 C 151.180 56.009,149.882 55.418,149.017 55.178 C 148.152 54.938,146.709 54.334,145.810 53.835 C 144.835 53.294,143.246 52.724,141.875 52.425 C 140.610 52.149,138.454 51.517,137.083 51.021 C 135.465 50.436,133.671 50.013,131.974 49.818 C 130.535 49.653,128.414 49.392,127.261 49.240 C 125.131 48.957,112.990 48.732,110.354 48.926 " stroke="none" fill="#fcfcfc" fill-rule="evenodd"></path></g></svg>